<?xml version="1.0" encoding="UTF-8" standalone="no"?>
<!-- Created with Inkscape (http://www.inkscape.org/) -->

<svg
   xmlns:dc="http://purl.org/dc/elements/1.1/"
   xmlns:cc="http://creativecommons.org/ns#"
   xmlns:rdf="http://www.w3.org/1999/02/22-rdf-syntax-ns#"
   xmlns:svg="http://www.w3.org/2000/svg"
   xmlns="http://www.w3.org/2000/svg"
   xmlns:sodipodi="http://sodipodi.sourceforge.net/DTD/sodipodi-0.dtd"
   xmlns:inkscape="http://www.inkscape.org/namespaces/inkscape"
   width="744.09448819"
   height="1052.3622047"
   id="svg2"
   version="1.1"
   inkscape:version="0.48.4 r9939"
   sodipodi:docname="New document 1">
  <defs
     id="defs4" />
  <sodipodi:namedview
     id="base"
     pagecolor="#ffffff"
     bordercolor="#666666"
     borderopacity="1.0"
     inkscape:pageopacity="0.0"
     inkscape:pageshadow="2"
     inkscape:zoom="2.2794454"
     inkscape:cx="182.71275"
     inkscape:cy="841.58368"
     inkscape:document-units="px"
     inkscape:current-layer="layer1"
     showgrid="true"
     inkscape:snap-bbox="true"
     objecttolerance="10000"
     inkscape:window-width="1440"
     inkscape:window-height="838"
     inkscape:window-x="-8"
     inkscape:window-y="-8"
     inkscape:window-maximized="1">
    <inkscape:grid
       type="xygrid"
       id="grid2985"
       empspacing="4"
       visible="true"
       enabled="true"
       snapvisiblegridlinesonly="true"
       spacingx="16px"
       spacingy="16px" />
  </sodipodi:namedview>
  <metadata
     id="metadata7">
    <rdf:RDF>
      <cc:Work
         rdf:about="">
        <dc:format>image/svg+xml</dc:format>
        <dc:type
           rdf:resource="http://purl.org/dc/dcmitype/StillImage" />
        <dc:title></dc:title>
      </cc:Work>
    </rdf:RDF>
  </metadata>
  <g
     inkscape:label="Layer 1"
     inkscape:groupmode="layer"
     id="layer1">
    <path
       style="fill:#808080;fill-opacity:1;stroke:none"
       d="m 0,92.362183 0,63.999997 0,64 0,16 32,0 c 8.836556,0 16,7.16344 16,16 0,8.83656 -7.163444,16 -16,16 l -32,0 0,16 0,16 32,0 c 8.83656,0 16,7.16344 16,16 l 0,32 16,0 16,0 0,-16 -16,0 0,-32 16,0 0,-16 32,0 0,32 0,32 16,0 16,0 0,-16 -16,0 0,-32 32,0 32,0 16,0 0,-16 32,0 0,16 16,0 0,-16 0,-16 -32,0 -32,0 -32,0 -32,0 0,-32 32,0 32,0 16,0 0,-16 0,-32 0,-32 32,0 0,16 16,0 0,-16 0,-16 -32,0 c -8.83656,0 -16,-7.16344 -16,-16 l 0,-31.999997 -16,0 -64,0 -16,0 0,31.999997 c 0,8.83656 -7.16344,16 -16,16 -8.83656,0 -16,-7.16344 -16,-16 l 0,-31.999997 -16,0 -64,0 z m 240,0 0,15.999997 16,0 0,-15.999997 -16,0 z M 32,108.36218 c 8.836556,0 16,7.16344 16,16 0,8.83656 -7.163444,16 -16,16 -8.836556,0 -16,-7.16344 -16,-16 0,-8.83656 7.163444,-16 16,-16 z m 128,0 32,0 0,32 -32,0 c -8.83656,0 -16,-7.16344 -16,-16 0,-8.83656 7.16344,-16 16,-16 z m -80,48 32,0 0,32 0,32 0,32 c 0,8.83656 -7.16344,16 -16,16 l -32,0 0,-32 16,0 0,-16 0,-32 0,-32 z m -48,16 c 8.83656,0 16,7.16344 16,16 l 0,32 -32,0 0,-32 c 0,-8.83656 7.163444,-16 16,-16 z m 128,0 32,0 0,32 -16,0 0,16 -32,0 0,-32 c 0,-8.83656 7.16344,-16 16,-16 z m 80,32 0,16 0,16 16,0 0,-16 0,-16 -16,0 z m -240,128 0,16 16,0 0,-16 -16,0 z m 176,0 0,16 16,0 16,0 0,-16 -16,0 -16,0 z m 64,0 0,16 16,0 0,-16 -16,0 z"
       id="rect3957"
       inkscape:connector-curvature="0" />
    <g
       id="g4146">
      <rect
         y="92.362183"
         x="320"
         height="64"
         width="64"
         id="rect4128"
         style="fill:#ff8080;fill-opacity:1;stroke:none" />
      <rect
         y="92.362183"
         x="384"
         height="64"
         width="64"
         id="rect4130"
         style="fill:#80ff80;fill-opacity:1;stroke:none" />
      <rect
         y="92.362183"
         x="448"
         height="64"
         width="64"
         id="rect4132"
         style="fill:#ffff80;fill-opacity:1;stroke:none" />
      <rect
         y="156.36218"
         x="320"
         height="64"
         width="64"
         id="rect4138"
         style="fill:#ff80ff;fill-opacity:1;stroke:none" />
      <rect
         y="156.36218"
         x="384"
         height="64"
         width="64"
         id="rect4140"
         style="fill:#80ffff;fill-opacity:1;stroke:none" />
      <rect
         y="156.36218"
         x="448"
         height="64"
         width="64"
         id="rect4142"
         style="fill:#ffffff;fill-opacity:1;stroke:none" />
    </g>
  </g>
</svg>
