<?xml version="1.0" encoding="UTF-8" standalone="no"?>
<!-- Created with Inkscape (http://www.inkscape.org/) -->

<svg
   xmlns:dc="http://purl.org/dc/elements/1.1/"
   xmlns:cc="http://creativecommons.org/ns#"
   xmlns:rdf="http://www.w3.org/1999/02/22-rdf-syntax-ns#"
   xmlns:svg="http://www.w3.org/2000/svg"
   xmlns="http://www.w3.org/2000/svg"
   xmlns:sodipodi="http://sodipodi.sourceforge.net/DTD/sodipodi-0.dtd"
   xmlns:inkscape="http://www.inkscape.org/namespaces/inkscape"
   width="640"
   height="320"
   id="svg2"
   version="1.1"
   inkscape:version="0.48.4 r9939"
   sodipodi:docname="map.svg">
  <defs
     id="defs4" />
  <sodipodi:namedview
     id="base"
     pagecolor="#ffffff"
     bordercolor="#666666"
     borderopacity="1.0"
     inkscape:pageopacity="0.0"
     inkscape:pageshadow="2"
     inkscape:zoom="5.2325337"
     inkscape:cx="233.7183"
     inkscape:cy="223.9944"
     inkscape:document-units="px"
     inkscape:current-layer="layer1"
     showgrid="true"
     inkscape:snap-bbox="true"
     inkscape:window-width="1920"
     inkscape:window-height="1018"
     inkscape:window-x="1912"
     inkscape:window-y="-8"
     inkscape:window-maximized="1">
    <inkscape:grid
       type="xygrid"
       id="grid2985"
       empspacing="10"
       visible="true"
       enabled="true"
       snapvisiblegridlinesonly="true"
       spacingx="4px"
       spacingy="4px" />
  </sodipodi:namedview>
  <metadata
     id="metadata7">
    <rdf:RDF>
      <cc:Work
         rdf:about="">
        <dc:format>image/svg+xml</dc:format>
        <dc:type
           rdf:resource="http://purl.org/dc/dcmitype/StillImage" />
        <dc:title></dc:title>
      </cc:Work>
    </rdf:RDF>
  </metadata>
  <g
     inkscape:label="Layer 1"
     inkscape:groupmode="layer"
     id="layer1"
     transform="translate(0,-732.36218)">
    <g
       id="g3060">
      <rect
         y="812.36218"
         x="200"
         height="160"
         width="160"
         id="rect3229"
         style="fill:none;fill-opacity:1;stroke:none" />
      <path
         id="rect3797"
         d="m 204,816.36218 0,32 32,0 0,-32 -32,0 z m 4,4 24,0 0,24 -24,0 0,-24 z"
         style="fill:#ffffff;fill-opacity:1;stroke:none"
         inkscape:connector-curvature="0" />
      <path
         id="rect3797-1"
         d="m 252,812.36218 0,4 -8,0 0,32 32,0 0,-32 -8,0 0,-4 -4,0 0,8 4,0 4,0 0,24 -24,0 0,-24 4,0 4,0 0,-8 -4,0 z"
         style="fill:#ffffff;fill-opacity:1;stroke:none"
         inkscape:connector-curvature="0" />
      <path
         id="rect3797-1-1"
         d="m 320,824.36218 -4,0 0,-8 -32,0 0,32 32,0 0,-8 4,0 0,-4 -8,0 0,4 0,4 -24,0 0,-24 24,0 0,4 0,4 8,0 0,-4 z"
         style="fill:#ffffff;fill-opacity:1;stroke:none"
         inkscape:connector-curvature="0" />
      <path
         id="rect3797-1-7"
         d="m 212,892.36218 0,-4 -8,0 0,-32 32,0 0,32 -8,0 0,4 -4,0 0,-8 4,0 4,0 0,-24 -24,0 0,24 4,0 4,0 0,8 -4,0 z"
         style="fill:#ffffff;fill-opacity:1;stroke:none"
         inkscape:connector-curvature="0" />
      <path
         id="rect3797-1-1-4"
         d="m 200,904.36218 4,0 0,-8 32,0 0,32 -32,0 0,-8 -4,0 0,-4 8,0 0,4 0,4 24,0 0,-24 -24,0 0,4 0,4 -8,0 0,-4 z"
         style="fill:#ffffff;fill-opacity:1;stroke:none"
         inkscape:connector-curvature="0" />
      <path
         id="rect3049"
         d="m 332,812.36218 0,4 -8,0 0,4 0,28 4,0 28,0 0,-4 0,-4 4,0 0,-4 -8,0 0,4 0,4 -24,0 0,-24 4,0 4,0 0,-8 -4,0 z m 12,0 0,8 4,0 4,0 0,4 0,4 8,0 0,-4 -4,0 0,-4 0,-4 -8,0 0,-4 -4,0 z"
         style="fill:#ffffff;fill-opacity:1;stroke:none"
         inkscape:connector-curvature="0" />
      <path
         id="rect3049-0"
         d="m 228,972.36218 0,-4 8,0 0,-4 0,-28 -4,0 -28,0 0,4 0,4 -4,0 0,4 8,0 0,-4 0,-4 24,0 0,24 -4,0 -4,0 0,8 4,0 z m -12,0 0,-8 -4,0 -4,0 0,-4 0,-4 -8,0 0,4 4,0 0,4 0,4 8,0 0,4 4,0 z"
         style="fill:#ffffff;fill-opacity:1;stroke:none"
         inkscape:connector-curvature="0" />
      <path
         id="rect3049-9"
         d="m 320,864.36218 -4,0 0,-8 -4,0 -28,0 0,4 0,28 4,0 4,0 0,4 4,0 0,-8 -4,0 -4,0 0,-24 24,0 0,4 0,4 8,0 0,-4 z m 0,12 -8,0 0,4 0,4 -4,0 -4,0 0,8 4,0 0,-4 4,0 4,0 0,-8 4,0 0,-4 z"
         style="fill:#ffffff;fill-opacity:1;stroke:none"
         inkscape:connector-curvature="0" />
      <path
         id="rect3049-4"
         d="m 240,920.36218 4,0 0,8 4,0 28,0 0,-4 0,-28 -4,0 -4,0 0,-4 -4,0 0,8 4,0 4,0 0,24 -24,0 0,-4 0,-4 -8,0 0,4 z m 0,-12 8,0 0,-4 0,-4 4,0 4,0 0,-8 -4,0 0,4 -4,0 -4,0 0,8 -4,0 0,4 z"
         style="fill:#ffffff;fill-opacity:1;stroke:none"
         inkscape:connector-curvature="0" />
      <path
         id="rect3113"
         d="m 252,852.36218 0,4 -4,0 -4,0 0,32 4,0 4,0 0,4 4,0 0,-8 -4,0 -4,0 0,-24 4,0 4,0 0,-8 -4,0 z m 12,0 0,8 4,0 4,0 0,24 -4,0 -4,0 0,8 4,0 0,-4 4,0 4,0 0,-32 -4,0 -4,0 0,-4 -4,0 z"
         style="fill:#ffffff;fill-opacity:1;stroke:none"
         inkscape:connector-curvature="0" />
      <path
         id="rect3113-8"
         d="m 320,904.36218 -4,0 0,-4 0,-4 -32,0 0,4 0,4 -4,0 0,4 8,0 0,-4 0,-4 24,0 0,4 0,4 8,0 0,-4 z m 0,12 -8,0 0,4 0,4 -24,0 0,-4 0,-4 -8,0 0,4 4,0 0,4 0,4 32,0 0,-4 0,-4 4,0 0,-4 z"
         style="fill:#ffffff;fill-opacity:1;stroke:none"
         inkscape:connector-curvature="0" />
      <path
         id="rect2987-8"
         d="m 332,932.36218 0,4 -8,0 0,4 0,4 -4,0 0,4 4,0 4,0 0,-8 8,0 0,-4 0,-4 -4,0 z m 12,0 0,4 0,4 8,0 0,8 4,0 4,0 0,-4 -4,0 0,-4 0,-4 -8,0 0,-4 -4,0 z m -24,24 0,4 4,0 0,8 4,0 4,0 0,4 4,0 0,-4 0,-4 -8,0 0,-4 0,-4 -8,0 z m 32,0 0,8 -8,0 0,4 0,4 4,0 0,-4 8,0 0,-4 0,-4 4,0 0,-4 -4,0 -4,0 z"
         style="fill:#ffffff;fill-opacity:1;stroke:none"
         inkscape:connector-curvature="0" />
      <path
         id="rect3170"
         d="m 332,852.36218 0,4 -4,0 -4,0 0,32 4,0 4,0 0,4 4,0 0,-8 -4,0 -4,0 0,-24 4,0 4,0 0,-8 -4,0 z m 12,0 0,8 4,0 4,0 0,4 0,4 8,0 0,-4 -4,0 0,-4 0,-4 -8,0 0,-4 -4,0 z m 8,24 0,4 0,4 -4,0 -4,0 0,8 4,0 0,-4 8,0 0,-4 0,-4 4,0 0,-4 -8,0 z"
         style="fill:#ffffff;fill-opacity:1;stroke:none"
         inkscape:connector-curvature="0" />
      <path
         id="rect3170-2"
         d="m 320,920.36218 4,0 0,4 0,4 32,0 0,-4 0,-4 4,0 0,-4 -8,0 0,4 0,4 -24,0 0,-4 0,-4 -8,0 0,4 z m 0,-12 8,0 0,-4 0,-4 4,0 4,0 0,-8 -4,0 0,4 -4,0 -4,0 0,8 -4,0 0,4 z m 24,-8 4,0 4,0 0,4 0,4 8,0 0,-4 -4,0 0,-8 -4,0 -4,0 0,-4 -4,0 0,8 z"
         style="fill:#ffffff;fill-opacity:1;stroke:none"
         inkscape:connector-curvature="0" />
      <path
         id="rect3170-4"
         d="m 268,972.36218 0,-4 4,0 4,0 0,-32 -4,0 -4,0 0,-4 -4,0 0,8 4,0 4,0 0,24 -4,0 -4,0 0,8 4,0 z m -12,0 0,-8 -4,0 -4,0 0,-4 0,-4 -8,0 0,4 4,0 0,4 0,4 8,0 0,4 4,0 z m -8,-24 0,-4 0,-4 4,0 4,0 0,-8 -4,0 0,4 -8,0 0,4 0,4 -4,0 0,4 8,0 z"
         style="fill:#ffffff;fill-opacity:1;stroke:none"
         inkscape:connector-curvature="0" />
      <path
         id="rect3170-5"
         d="m 320,944.36218 -4,0 0,-4 0,-4 -32,0 0,4 0,4 -4,0 0,4 8,0 0,-4 0,-4 24,0 0,4 0,4 8,0 0,-4 z m 0,12 -8,0 0,4 0,4 -4,0 -4,0 0,8 4,0 0,-4 4,0 4,0 0,-8 4,0 0,-4 z m -24,8 -4,0 -4,0 0,-4 0,-4 -8,0 0,4 4,0 0,8 4,0 4,0 0,4 4,0 0,-8 z"
         style="fill:#ffffff;fill-opacity:1;stroke:none"
         inkscape:connector-curvature="0" />
    </g>
    <g
       id="g3083"
       inkscape:export-filename="C:\Users\epazera\Documents\GitHub\CoronaSDKDev\sourceart\Splorr-WOTD\Player.png"
       inkscape:export-xdpi="90"
       inkscape:export-ydpi="90">
      <rect
         transform="translate(0,732.36218)"
         y="80"
         x="360"
         height="80"
         width="80"
         id="rect3081"
         style="fill:none;stroke:none" />
      <path
         inkscape:connector-curvature="0"
         id="path3795"
         d="m 380,828.36218 4,8 -8,0 z"
         style="fill:#ffffff;stroke:none" />
      <path
         inkscape:connector-curvature="0"
         id="path3795-1"
         d="m 424,832.36218 -8,4 0,-8 z"
         style="fill:#ffffff;stroke:none" />
      <path
         inkscape:connector-curvature="0"
         id="path3795-7"
         d="m 380,876.36218 -4,-8 8,0 z"
         style="fill:#ffffff;stroke:none" />
      <path
         inkscape:connector-curvature="0"
         id="path3795-4"
         d="m 416,872.36218 8,-4 0,8 z"
         style="fill:#ffffff;stroke:none" />
    </g>
    <path
       style="fill:#000000;fill-opacity:1;stroke:none"
       d="m 252,732.36218 0,4 -8,0 0,4 0,4 -4,0 0,4 4,0 4,0 0,-8 8,0 0,-4 0,-4 -4,0 z m 12,0 0,4 0,4 8,0 0,8 4,0 4,0 0,-4 -4,0 0,-4 0,-4 -8,0 0,-4 -4,0 z m -24,24 0,4 4,0 0,8 4,0 4,0 0,4 4,0 0,-4 0,-4 -8,0 0,-4 0,-4 -8,0 z m 32,0 0,8 -8,0 0,4 0,4 4,0 0,-4 8,0 0,-4 0,-4 4,0 0,-4 -4,0 -4,0 z"
       id="rect2987-1"
       inkscape:connector-curvature="0" />
    <g
       id="g3339"
       inkscape:export-filename="C:\Users\epazera\Documents\GitHub\CoronaSDKDev\sourceart\Splorr-WOTD\MapSecretDoors.png"
       inkscape:export-xdpi="90"
       inkscape:export-ydpi="90">
      <rect
         transform="translate(0,732.36218)"
         y="0"
         x="0"
         height="160"
         width="160"
         id="rect3337"
         style="fill:none;fill-opacity:1;stroke:none" />
      <rect
         y="852.36218"
         x="136"
         height="4"
         width="8"
         id="rect3137-6"
         style="fill:#808080;fill-opacity:1;stroke:none" />
      <rect
         y="868.36218"
         x="156"
         height="8"
         width="4"
         id="rect3139-1"
         style="fill:#808080;fill-opacity:1;stroke:none" />
      <rect
         y="868.36218"
         x="120"
         height="8"
         width="4"
         id="rect3141-4"
         style="fill:#808080;fill-opacity:1;stroke:none" />
      <rect
         y="888.36218"
         x="136"
         height="4"
         width="8"
         id="rect3143-2"
         style="fill:#808080;fill-opacity:1;stroke:none" />
      <rect
         y="868.36218"
         x="116"
         height="8"
         width="4"
         id="rect3139-2"
         style="fill:#808080;fill-opacity:1;stroke:none" />
      <rect
         y="868.36218"
         x="80"
         height="8"
         width="4"
         id="rect3141-2"
         style="fill:#808080;fill-opacity:1;stroke:none" />
      <rect
         y="888.36218"
         x="96"
         height="4"
         width="8"
         id="rect3143-1"
         style="fill:#808080;fill-opacity:1;stroke:none" />
      <rect
         y="852.36218"
         x="56"
         height="4"
         width="8"
         id="rect3137-68"
         style="fill:#808080;fill-opacity:1;stroke:none" />
      <rect
         y="868.36218"
         x="40"
         height="8"
         width="4"
         id="rect3141-7"
         style="fill:#808080;fill-opacity:1;stroke:none" />
      <rect
         y="888.36218"
         x="56"
         height="4"
         width="8"
         id="rect3143-6"
         style="fill:#808080;fill-opacity:1;stroke:none" />
      <rect
         y="868.36218"
         x="0"
         height="8"
         width="4"
         id="rect3141-9"
         style="fill:#808080;fill-opacity:1;stroke:none" />
      <rect
         y="888.36218"
         x="16"
         height="4"
         width="8"
         id="rect3143-27"
         style="fill:#808080;fill-opacity:1;stroke:none" />
      <rect
         y="812.36218"
         x="136"
         height="4"
         width="8"
         id="rect3137-6-9"
         style="fill:#808080;fill-opacity:1;stroke:none" />
      <rect
         y="828.36218"
         x="156"
         height="8"
         width="4"
         id="rect3139-1-5"
         style="fill:#808080;fill-opacity:1;stroke:none" />
      <rect
         y="828.36218"
         x="120"
         height="8"
         width="4"
         id="rect3141-4-4"
         style="fill:#808080;fill-opacity:1;stroke:none" />
      <rect
         y="828.36218"
         x="116"
         height="8"
         width="4"
         id="rect3139-2-1"
         style="fill:#808080;fill-opacity:1;stroke:none" />
      <rect
         y="828.36218"
         x="80"
         height="8"
         width="4"
         id="rect3141-2-2"
         style="fill:#808080;fill-opacity:1;stroke:none" />
      <rect
         y="812.36218"
         x="56"
         height="4"
         width="8"
         id="rect3137-68-3"
         style="fill:#808080;fill-opacity:1;stroke:none" />
      <rect
         y="828.36218"
         x="40"
         height="8"
         width="4"
         id="rect3141-7-4"
         style="fill:#808080;fill-opacity:1;stroke:none" />
      <rect
         y="828.36218"
         x="0"
         height="8"
         width="4"
         id="rect3141-9-1"
         style="fill:#808080;fill-opacity:1;stroke:none" />
      <rect
         y="772.36218"
         x="136"
         height="4"
         width="8"
         id="rect3137-6-8"
         style="fill:#808080;fill-opacity:1;stroke:none" />
      <rect
         y="788.36218"
         x="156"
         height="8"
         width="4"
         id="rect3139-1-7"
         style="fill:#808080;fill-opacity:1;stroke:none" />
      <rect
         y="808.36218"
         x="136"
         height="4"
         width="8"
         id="rect3143-2-7"
         style="fill:#808080;fill-opacity:1;stroke:none" />
      <rect
         y="788.36218"
         x="116"
         height="8"
         width="4"
         id="rect3139-2-7"
         style="fill:#808080;fill-opacity:1;stroke:none" />
      <rect
         y="808.36218"
         x="96"
         height="4"
         width="8"
         id="rect3143-1-3"
         style="fill:#808080;fill-opacity:1;stroke:none" />
      <rect
         y="772.36218"
         x="56"
         height="4"
         width="8"
         id="rect3137-68-1"
         style="fill:#808080;fill-opacity:1;stroke:none" />
      <rect
         y="808.36218"
         x="56"
         height="4"
         width="8"
         id="rect3143-6-8"
         style="fill:#808080;fill-opacity:1;stroke:none" />
      <rect
         y="808.36218"
         x="16"
         height="4"
         width="8"
         id="rect3143-27-5"
         style="fill:#808080;fill-opacity:1;stroke:none" />
      <rect
         y="732.36218"
         x="136"
         height="4"
         width="8"
         id="rect3137-6-9-0"
         style="fill:#808080;fill-opacity:1;stroke:none" />
      <rect
         y="748.36218"
         x="156"
         height="8"
         width="4"
         id="rect3139-1-5-2"
         style="fill:#808080;fill-opacity:1;stroke:none" />
      <rect
         y="748.36218"
         x="116"
         height="8"
         width="4"
         id="rect3139-2-1-6"
         style="fill:#808080;fill-opacity:1;stroke:none" />
      <rect
         y="732.36218"
         x="56"
         height="4"
         width="8"
         id="rect3137-68-3-2"
         style="fill:#808080;fill-opacity:1;stroke:none" />
    </g>
    <g
       id="g3061"
       inkscape:export-filename="C:\Users\epazera\Documents\GitHub\CoronaSDKDev\sourceart\Splorr-WOTD\MapExit.png"
       inkscape:export-xdpi="90"
       inkscape:export-ydpi="90">
      <rect
         transform="translate(0,732.36218)"
         y="40"
         x="200"
         height="40"
         width="40"
         id="rect3059"
         style="fill:none;fill-opacity:1;stroke:none" />
      <path
         inkscape:connector-curvature="0"
         id="rect3050"
         d="m 212,784.36218 0,4 0,8 0,4 16,0 0,-4 0,-8 0,-4 -16,0 z m 4,4 8,0 0,8 -8,0 0,-8 z"
         style="fill:#ffffff;stroke:none" />
    </g>
  </g>
</svg>
