<?xml version="1.0" encoding="UTF-8" standalone="no"?>
<!-- Created with Inkscape (http://www.inkscape.org/) -->

<svg
   xmlns:dc="http://purl.org/dc/elements/1.1/"
   xmlns:cc="http://creativecommons.org/ns#"
   xmlns:rdf="http://www.w3.org/1999/02/22-rdf-syntax-ns#"
   xmlns:svg="http://www.w3.org/2000/svg"
   xmlns="http://www.w3.org/2000/svg"
   xmlns:sodipodi="http://sodipodi.sourceforge.net/DTD/sodipodi-0.dtd"
   xmlns:inkscape="http://www.inkscape.org/namespaces/inkscape"
   width="744.09448819"
   height="1052.3622047"
   id="svg2985"
   version="1.1"
   inkscape:version="0.48.4 r9939"
   sodipodi:docname="chemsquare2.svg">
  <defs
     id="defs2987" />
  <sodipodi:namedview
     id="base"
     pagecolor="#ffffff"
     bordercolor="#ffffff"
     borderopacity="0.0"
     inkscape:pageopacity="0.0"
     inkscape:pageshadow="0"
     inkscape:zoom="0.30419224"
     inkscape:cx="-882.77614"
     inkscape:cy="833.90002"
     inkscape:document-units="px"
     inkscape:current-layer="layer1"
     showgrid="true"
     inkscape:snap-bbox="true"
     inkscape:window-width="1440"
     inkscape:window-height="838"
     inkscape:window-x="-8"
     inkscape:window-y="-8"
     inkscape:window-maximized="1">
    <inkscape:grid
       type="xygrid"
       id="grid2993"
       empspacing="10"
       visible="true"
       enabled="true"
       snapvisiblegridlinesonly="true"
       spacingx="4px"
       spacingy="4px" />
  </sodipodi:namedview>
  <metadata
     id="metadata2990">
    <rdf:RDF>
      <cc:Work
         rdf:about="">
        <dc:format>image/svg+xml</dc:format>
        <dc:type
           rdf:resource="http://purl.org/dc/dcmitype/StillImage" />
        <dc:title></dc:title>
      </cc:Work>
    </rdf:RDF>
  </metadata>
  <g
     inkscape:label="Layer 1"
     inkscape:groupmode="layer"
     id="layer1">
    <text
       xml:space="preserve"
       style="font-size:16px;font-style:normal;font-weight:normal;line-height:125%;letter-spacing:0px;word-spacing:0px;fill:#000000;fill-opacity:1;stroke:none;font-family:Sans"
       x="-251.30026"
       y="241.65015"
       id="text4149"
       sodipodi:linespacing="125%"><tspan
         sodipodi:role="line"
         id="tspan4151"
         x="-251.30026"
         y="241.65015" /></text>
    <rect
       style="fill:#000000;fill-opacity:1;stroke:none"
       id="rect4121"
       width="8"
       height="8"
       x="-436"
       y="308.36218" />
    <rect
       style="fill:#000000;fill-opacity:1;stroke:none"
       id="rect4123"
       width="8"
       height="8"
       x="-396"
       y="308.36218" />
    <rect
       style="fill:#000000;fill-opacity:1;stroke:none"
       id="rect4125"
       width="8"
       height="8"
       x="-356"
       y="308.36218" />
    <rect
       style="fill:#000000;fill-opacity:1;stroke:none"
       id="rect4127"
       width="8"
       height="8"
       x="-316"
       y="308.36218" />
    <rect
       style="fill:#000000;fill-opacity:1;stroke:none"
       id="rect4014"
       width="8"
       height="8"
       x="-424"
       y="280.36218" />
    <rect
       style="fill:#000000;fill-opacity:1;stroke:none"
       id="rect4016"
       width="8"
       height="8"
       x="-384"
       y="280.36218" />
    <rect
       style="fill:#000000;fill-opacity:1;stroke:none"
       id="rect4018"
       width="8"
       height="8"
       x="-344"
       y="280.36218" />
    <rect
       style="fill:#000000;fill-opacity:1;stroke:none"
       id="rect4020"
       width="8"
       height="8"
       x="-304"
       y="280.36218" />
    <rect
       style="fill:#000000;fill-opacity:1;stroke:none"
       id="rect4129"
       width="8"
       height="8"
       x="-436"
       y="348.36218" />
    <rect
       style="fill:#000000;fill-opacity:1;stroke:none"
       id="rect4131"
       width="8"
       height="8"
       x="-396"
       y="348.36218" />
    <rect
       style="fill:#000000;fill-opacity:1;stroke:none"
       id="rect4133"
       width="8"
       height="8"
       x="-356"
       y="348.36218" />
    <rect
       style="fill:#000000;fill-opacity:1;stroke:none"
       id="rect4135"
       width="4"
       height="8"
       x="-316"
       y="348.36218" />
    <rect
       style="fill:#000000;fill-opacity:1;stroke:none"
       id="rect4014-2"
       width="8"
       height="8"
       x="-424"
       y="360.34937" />
    <rect
       style="fill:#000000;fill-opacity:1;stroke:none"
       id="rect4016-3"
       width="8"
       height="8"
       x="-384"
       y="360.34937" />
    <rect
       style="fill:#000000;fill-opacity:1;stroke:none"
       id="rect4018-3"
       width="8"
       height="8"
       x="-344"
       y="360.34937" />
    <rect
       style="fill:#000000;fill-opacity:1;stroke:none"
       id="rect4020-4"
       width="8"
       height="3.9871826"
       x="-304"
       y="364.36218" />
    <rect
       style="fill:#000000;fill-opacity:1;stroke:none"
       id="rect3959"
       width="8"
       height="8"
       x="-332"
       y="228.36218" />
    <rect
       style="fill:#000000;fill-opacity:1;stroke:none"
       id="rect3961"
       width="8"
       height="8"
       x="-292"
       y="228.36218" />
    <rect
       style="fill:#000000;fill-opacity:1;stroke:none"
       id="rect3927"
       width="8"
       height="8"
       x="-384"
       y="216.36218" />
    <path
       inkscape:connector-curvature="0"
       style="fill:#ff00ff;fill-opacity:1;stroke:none"
       d="m -440,212.36218 0,40 40,0 0,-40 -40,0 z m 4,4 32,0 0,32 -32,0 0,-32 z"
       id="rect2995" />
    <path
       inkscape:connector-curvature="0"
       style="fill:#ff00ff;fill-opacity:1;stroke:none"
       d="m -400,212.36218 0,40 40,0 0,-40 -40,0 z m 4,4 32,0 0,32 -32,0 0,-32 z"
       id="rect2995-1" />
    <path
       inkscape:connector-curvature="0"
       style="fill:#ff00ff;fill-opacity:1;stroke:none"
       d="m -400,372.34936 0,40 40,0 0,-40 -40,0 z m 4,4 32,0 0,32 -32,0 0,-32 z"
       id="rect2995-1-4-5-2" />
    <path
       inkscape:connector-curvature="0"
       style="fill:#ff00ff;fill-opacity:1;stroke:none"
       d="m -360,372.34936 0,40 40,0 0,-40 -40,0 z m 4,4 32,0 0,32 -32,0 0,-32 z"
       id="rect2995-7-4-1-7" />
    <path
       inkscape:connector-curvature="0"
       style="fill:#ff00ff;fill-opacity:1;stroke:none"
       d="m -320,372.33654 0,40 40,0 0,-40 -40,0 z m 4,4 32,0 0,32 -32,0 0,-32 z"
       id="rect2995-1-4-8-1-6" />
    <path
       inkscape:connector-curvature="0"
       style="fill:#ff00ff;fill-opacity:1;stroke:none"
       d="m -440,412.36218 0,40 40,0 0,-40 -40,0 z m 4,4 32,0 0,32 -32,0 0,-32 z"
       id="rect2995-7-45-1" />
    <path
       inkscape:connector-curvature="0"
       style="fill:#ff00ff;fill-opacity:1;stroke:none"
       d="m -400,412.34936 0,40 40,0 0,-40 -40,0 z m 4,4 32,0 0,32 -32,0 0,-32 z"
       id="rect2995-1-4-5-4" />
    <path
       inkscape:connector-curvature="0"
       style="fill:#ff00ff;fill-opacity:1;stroke:none"
       d="m -360,412.34936 0,40 40,0 0,-40 -40,0 z m 4,4 32,0 0,32 -32,0 0,-32 z"
       id="rect2995-7-4-1-2" />
    <path
       inkscape:connector-curvature="0"
       style="fill:#ff00ff;fill-opacity:1;stroke:none"
       d="m -320,412.33654 0,40 40,0 0,-40 -40,0 z m 4,4 32,0 0,32 -32,0 0,-32 z"
       id="rect2995-1-4-8-1-3" />
    <path
       sodipodi:type="arc"
       style="fill:#0000ff;fill-opacity:1;stroke:#000000;stroke-width:2;stroke-miterlimit:4;stroke-dasharray:none"
       id="path3145"
       sodipodi:cx="-420"
       sodipodi:cy="232.36218"
       sodipodi:rx="12"
       sodipodi:ry="12"
       d="m -408,232.36218 a 12,12 0 1 1 -24,0 12,12 0 1 1 24,0 z" />
    <path
       sodipodi:type="arc"
       style="fill:#ffff00;fill-opacity:1;stroke:#000000;stroke-width:2;stroke-miterlimit:4;stroke-opacity:1;stroke-dasharray:none;stroke-dashoffset:0"
       id="path3917"
       sodipodi:cx="-380"
       sodipodi:cy="232.36218"
       sodipodi:rx="12"
       sodipodi:ry="12"
       d="m -368,232.36218 a 12,12 0 1 1 -24,0 12,12 0 1 1 24,0 z" />
    <rect
       style="fill:#000000;fill-opacity:1;stroke:none"
       id="rect3927-2"
       width="8"
       height="8"
       x="-304"
       y="216.34937" />
    <path
       inkscape:connector-curvature="0"
       style="fill:#ff00ff;fill-opacity:1;stroke:none"
       d="m -360,212.36218 0,40 40,0 0,-40 -40,0 z m 4,4 32,0 0,32 -32,0 0,-32 z"
       id="rect2995-2" />
    <path
       inkscape:connector-curvature="0"
       style="fill:#ff00ff;fill-opacity:1;stroke:none"
       d="m -320,212.36218 0,40 40,0 0,-40 -40,0 z m 4,4 32,0 0,32 -32,0 0,-32 z"
       id="rect2995-1-1" />
    <path
       transform="translate(80,-0.01281738)"
       sodipodi:type="arc"
       style="fill:#ffff00;fill-opacity:1;stroke:#000000;stroke-width:2;stroke-miterlimit:4;stroke-dasharray:none"
       id="path3145-6"
       sodipodi:cx="-420"
       sodipodi:cy="232.36218"
       sodipodi:rx="12"
       sodipodi:ry="12"
       d="m -408,232.36218 a 12,12 0 1 1 -24,0 12,12 0 1 1 24,0 z" />
    <path
       transform="translate(80,-0.01281738)"
       sodipodi:type="arc"
       style="fill:#ff0000;fill-opacity:1;stroke:#000000;stroke-width:2;stroke-miterlimit:4;stroke-opacity:1;stroke-dasharray:none;stroke-dashoffset:0"
       id="path3917-8"
       sodipodi:cx="-380"
       sodipodi:cy="232.36218"
       sodipodi:rx="12"
       sodipodi:ry="12"
       d="m -368,232.36218 a 12,12 0 1 1 -24,0 12,12 0 1 1 24,0 z" />
    <rect
       style="fill:#000000;fill-opacity:1;stroke:none"
       id="rect3959-5"
       width="8"
       height="8"
       x="-332"
       y="268.34937" />
    <rect
       style="fill:#000000;fill-opacity:1;stroke:none"
       id="rect3961-7"
       width="8"
       height="8"
       x="-292"
       y="268.34937" />
    <rect
       style="fill:#000000;fill-opacity:1;stroke:none"
       id="rect3927-6"
       width="8"
       height="8"
       x="-384"
       y="256.34937" />
    <path
       inkscape:connector-curvature="0"
       style="fill:#ff00ff;fill-opacity:1;stroke:none"
       d="m -440,252.36218 0,40 40,0 0,-40 -40,0 z m 4,4 32,0 0,32 -32,0 0,-32 z"
       id="rect2995-18" />
    <path
       inkscape:connector-curvature="0"
       style="fill:#ff00ff;fill-opacity:1;stroke:none"
       d="m -400,252.36218 0,40 40,0 0,-40 -40,0 z m 4,4 32,0 0,32 -32,0 0,-32 z"
       id="rect2995-1-9" />
    <path
       transform="translate(0,39.987186)"
       sodipodi:type="arc"
       style="fill:#ffff00;fill-opacity:1;stroke:#000000;stroke-width:2;stroke-miterlimit:4;stroke-dasharray:none"
       id="path3145-2"
       sodipodi:cx="-420"
       sodipodi:cy="232.36218"
       sodipodi:rx="12"
       sodipodi:ry="12"
       d="m -408,232.36218 a 12,12 0 1 1 -24,0 12,12 0 1 1 24,0 z" />
    <path
       transform="translate(0,39.987186)"
       sodipodi:type="arc"
       style="fill:#ff0000;fill-opacity:1;stroke:#000000;stroke-width:2;stroke-miterlimit:4;stroke-opacity:1;stroke-dasharray:none;stroke-dashoffset:0"
       id="path3917-7"
       sodipodi:cx="-380"
       sodipodi:cy="232.36218"
       sodipodi:rx="12"
       sodipodi:ry="12"
       d="m -368,232.36218 a 12,12 0 1 1 -24,0 12,12 0 1 1 24,0 z" />
    <rect
       style="fill:#000000;fill-opacity:1;stroke:none"
       id="rect3927-2-9"
       width="8"
       height="8"
       x="-304"
       y="256.33655" />
    <path
       inkscape:connector-curvature="0"
       style="fill:#ff00ff;fill-opacity:1;stroke:none"
       d="m -360,252.36218 0,40 40,0 0,-40 -40,0 z m 4,4 32,0 0,32 -32,0 0,-32 z"
       id="rect2995-2-5" />
    <path
       inkscape:connector-curvature="0"
       style="fill:#ff00ff;fill-opacity:1;stroke:none"
       d="m -320,252.36218 0,40 40,0 0,-40 -40,0 z m 4,4 32,0 0,32 -32,0 0,-32 z"
       id="rect2995-1-1-4" />
    <path
       transform="translate(80,39.974366)"
       sodipodi:type="arc"
       style="fill:#ff0000;fill-opacity:1;stroke:#000000;stroke-width:2;stroke-miterlimit:4;stroke-dasharray:none"
       id="path3145-6-3"
       sodipodi:cx="-420"
       sodipodi:cy="232.36218"
       sodipodi:rx="12"
       sodipodi:ry="12"
       d="m -408,232.36218 a 12,12 0 1 1 -24,0 12,12 0 1 1 24,0 z" />
    <path
       transform="translate(80,39.974366)"
       sodipodi:type="arc"
       style="fill:#00ffff;fill-opacity:1;stroke:#000000;stroke-width:2;stroke-miterlimit:4;stroke-opacity:1;stroke-dasharray:none;stroke-dashoffset:0"
       id="path3917-8-1"
       sodipodi:cx="-380"
       sodipodi:cy="232.36218"
       sodipodi:rx="12"
       sodipodi:ry="12"
       d="m -368,232.36218 a 12,12 0 1 1 -24,0 12,12 0 1 1 24,0 z" />
    <rect
       style="fill:#000000;fill-opacity:1;stroke:none"
       id="rect3959-1"
       width="8"
       height="8"
       x="-332"
       y="308.34937" />
    <rect
       style="fill:#000000;fill-opacity:1;stroke:none"
       id="rect3961-1"
       width="8"
       height="8"
       x="-292"
       y="308.34937" />
    <rect
       style="fill:#000000;fill-opacity:1;stroke:none"
       id="rect3927-3"
       width="8"
       height="8"
       x="-384"
       y="296.34937" />
    <path
       inkscape:connector-curvature="0"
       style="fill:#ff00ff;fill-opacity:1;stroke:none"
       d="m -440,292.36218 0,40 40,0 0,-40 -40,0 z m 4,4 32,0 0,32 -32,0 0,-32 z"
       id="rect2995-8" />
    <path
       inkscape:connector-curvature="0"
       style="fill:#ff00ff;fill-opacity:1;stroke:none"
       d="m -400,292.34936 0,40 40,0 0,-40 -40,0 z m 4,4 32,0 0,32 -32,0 0,-32 z"
       id="rect2995-1-7" />
    <path
       transform="translate(0,79.987183)"
       sodipodi:type="arc"
       style="fill:#ffff00;fill-opacity:1;stroke:#000000;stroke-width:2;stroke-miterlimit:4;stroke-dasharray:none"
       id="path3145-4"
       sodipodi:cx="-420"
       sodipodi:cy="232.36218"
       sodipodi:rx="12"
       sodipodi:ry="12"
       d="m -408,232.36218 a 12,12 0 1 1 -24,0 12,12 0 1 1 24,0 z" />
    <path
       transform="translate(0,79.987183)"
       sodipodi:type="arc"
       style="fill:#ff0000;fill-opacity:1;stroke:#000000;stroke-width:2;stroke-miterlimit:4;stroke-opacity:1;stroke-dasharray:none;stroke-dashoffset:0"
       id="path3917-2"
       sodipodi:cx="-380"
       sodipodi:cy="232.36218"
       sodipodi:rx="12"
       sodipodi:ry="12"
       d="m -368,232.36218 a 12,12 0 1 1 -24,0 12,12 0 1 1 24,0 z" />
    <rect
       style="fill:#000000;fill-opacity:1;stroke:none"
       id="rect3927-2-7"
       width="8"
       height="8"
       x="-304"
       y="296.33655" />
    <path
       inkscape:connector-curvature="0"
       style="fill:#ff00ff;fill-opacity:1;stroke:none"
       d="m -360,292.36218 0,40 40,0 0,-40 -40,0 z m 4,4 32,0 0,32 -32,0 0,-32 z"
       id="rect2995-2-7" />
    <path
       inkscape:connector-curvature="0"
       style="fill:#ff00ff;fill-opacity:1;stroke:none"
       d="m -320,292.36218 0,40 40,0 0,-40 -40,0 z m 4,4 32,0 0,32 -32,0 0,-32 z"
       id="rect2995-1-1-9" />
    <path
       transform="translate(80,79.974363)"
       sodipodi:type="arc"
       style="fill:#ff0000;fill-opacity:1;stroke:#000000;stroke-width:2;stroke-miterlimit:4;stroke-dasharray:none"
       id="path3145-6-31"
       sodipodi:cx="-420"
       sodipodi:cy="232.36218"
       sodipodi:rx="12"
       sodipodi:ry="12"
       d="m -408,232.36218 a 12,12 0 1 1 -24,0 12,12 0 1 1 24,0 z" />
    <path
       transform="translate(80,79.974363)"
       sodipodi:type="arc"
       style="fill:#00ffff;fill-opacity:1;stroke:#000000;stroke-width:2;stroke-miterlimit:4;stroke-opacity:1;stroke-dasharray:none;stroke-dashoffset:0"
       id="path3917-8-9"
       sodipodi:cx="-380"
       sodipodi:cy="232.36218"
       sodipodi:rx="12"
       sodipodi:ry="12"
       d="m -368,232.36218 a 12,12 0 1 1 -24,0 12,12 0 1 1 24,0 z" />
    <rect
       style="fill:#000000;fill-opacity:1;stroke:none"
       id="rect3959-5-8"
       width="8"
       height="8"
       x="-332"
       y="348.33655" />
    <rect
       style="fill:#000000;fill-opacity:1;stroke:none"
       id="rect3961-7-6"
       width="8"
       height="8"
       x="-292"
       y="348.33655" />
    <rect
       style="fill:#000000;fill-opacity:1;stroke:none"
       id="rect3927-6-5"
       width="8"
       height="8"
       x="-384"
       y="336.33655" />
    <path
       inkscape:connector-curvature="0"
       style="fill:#ff00ff;fill-opacity:1;stroke:none"
       d="m -440,332.36218 0,40 40,0 0,-40 -40,0 z m 4,4 32,0 0,32 -32,0 0,-32 z"
       id="rect2995-18-0" />
    <path
       inkscape:connector-curvature="0"
       style="fill:#ff00ff;fill-opacity:1;stroke:none"
       d="m -400,332.36218 0,40 40,0 0,-40 -40,0 z m 4,4 32,0 0,32 -32,0 0,-32 z"
       id="rect2995-1-9-2" />
    <path
       transform="translate(0,119.97437)"
       sodipodi:type="arc"
       style="fill:#ff0000;fill-opacity:1;stroke:#000000;stroke-width:2;stroke-miterlimit:4;stroke-dasharray:none"
       id="path3145-2-8"
       sodipodi:cx="-420"
       sodipodi:cy="232.36218"
       sodipodi:rx="12"
       sodipodi:ry="12"
       d="m -408,232.36218 a 12,12 0 1 1 -24,0 12,12 0 1 1 24,0 z" />
    <path
       transform="translate(0,119.97437)"
       sodipodi:type="arc"
       style="fill:#00ffff;fill-opacity:1;stroke:#000000;stroke-width:2;stroke-miterlimit:4;stroke-opacity:1;stroke-dasharray:none;stroke-dashoffset:0"
       id="path3917-7-6"
       sodipodi:cx="-380"
       sodipodi:cy="232.36218"
       sodipodi:rx="12"
       sodipodi:ry="12"
       d="m -368,232.36218 a 12,12 0 1 1 -24,0 12,12 0 1 1 24,0 z" />
    <rect
       style="fill:#000000;fill-opacity:1;stroke:none"
       id="rect3927-2-9-0"
       width="8"
       height="8"
       x="-304"
       y="336.32373" />
    <path
       inkscape:connector-curvature="0"
       style="fill:#ff00ff;fill-opacity:1;stroke:none"
       d="m -360,332.36218 0,40 40,0 0,-40 -40,0 z m 4,4 32,0 0,32 -32,0 0,-32 z"
       id="rect2995-2-5-2" />
    <path
       inkscape:connector-curvature="0"
       style="fill:#ff00ff;fill-opacity:1;stroke:none"
       d="m -320,332.36218 0,40 40,0 0,-40 -40,0 z m 4,4 32,0 0,32 -32,0 0,-32 z"
       id="rect2995-1-1-4-4" />
    <path
       transform="translate(80,119.96155)"
       sodipodi:type="arc"
       style="fill:#00ffff;fill-opacity:1;stroke:#000000;stroke-width:2;stroke-miterlimit:4;stroke-dasharray:none"
       id="path3145-6-3-8"
       sodipodi:cx="-420"
       sodipodi:cy="232.36218"
       sodipodi:rx="12"
       sodipodi:ry="12"
       d="m -408,232.36218 a 12,12 0 1 1 -24,0 12,12 0 1 1 24,0 z" />
    <path
       transform="translate(80,119.96155)"
       sodipodi:type="arc"
       style="fill:#333333;fill-opacity:1;stroke:#000000;stroke-width:2;stroke-miterlimit:4;stroke-opacity:1;stroke-dasharray:none;stroke-dashoffset:0"
       id="path3917-8-1-6"
       sodipodi:cx="-380"
       sodipodi:cy="232.36218"
       sodipodi:rx="12"
       sodipodi:ry="12"
       d="m -368,232.36218 a 12,12 0 1 1 -24,0 12,12 0 1 1 24,0 z" />
    <path
       inkscape:connector-curvature="0"
       style="fill:#ff00ff;fill-opacity:1;stroke:none"
       d="m -440,372.375 0,40 40,0 0,-40 -40,0 z m 4,4 32,0 0,32 -32,0 0,-32 z"
       id="rect2995-5" />
    <path
       transform="translate(0,160)"
       sodipodi:type="arc"
       style="fill:#ffffff;fill-opacity:1;stroke:#000000;stroke-width:2;stroke-miterlimit:4;stroke-dasharray:none"
       id="path3145-0"
       sodipodi:cx="-420"
       sodipodi:cy="232.36218"
       sodipodi:rx="12"
       sodipodi:ry="12"
       d="m -408,232.36218 a 12,12 0 1 1 -24,0 12,12 0 1 1 24,0 z" />
    <path
       sodipodi:type="arc"
       style="fill:#ff8080;fill-opacity:1;stroke:#804040;stroke-opacity:1"
       id="path4208"
       sodipodi:cx="-380"
       sodipodi:cy="392.36218"
       sodipodi:rx="8"
       sodipodi:ry="8"
       d="m -372,392.36218 a 8,8 0 1 1 -16,0 8,8 0 1 1 16,0 z" />
    <path
       sodipodi:type="arc"
       style="fill:#ffff80;fill-opacity:1;stroke:#808040;stroke-width:1;stroke-miterlimit:4;stroke-opacity:1;stroke-dasharray:none;stroke-dashoffset:0"
       id="path4210"
       sodipodi:cx="-340"
       sodipodi:cy="392.36218"
       sodipodi:rx="8"
       sodipodi:ry="8"
       d="m -332,392.36218 a 8,8 0 1 1 -16,0 8,8 0 1 1 16,0 z" />
    <path
       sodipodi:type="arc"
       style="fill:#80ff80;fill-opacity:1;stroke:#408040;stroke-width:1;stroke-miterlimit:4;stroke-opacity:1;stroke-dasharray:none;stroke-dashoffset:0"
       id="path4212"
       sodipodi:cx="-300"
       sodipodi:cy="392.36218"
       sodipodi:rx="8"
       sodipodi:ry="8"
       d="m -292,392.36218 a 8,8 0 1 1 -16,0 8,8 0 1 1 16,0 z" />
    <path
       inkscape:connector-curvature="0"
       style="fill:#00ff00;fill-opacity:1;stroke:none"
       d="m -436,416.375 0,4 0,4 4,0 0,-4 4,0 0,-4 -4,0 -4,0 z m 24,0 0,4 4,0 0,4 4,0 0,-8 -8,0 z m -24,24 0,4 0,4 8,0 0,-4 -4,0 0,-4 -4,0 z m 28,0 0,4 -4,0 0,4 8,0 0,-4 0,-4 -4,0 z"
       id="rect4214" />
    <path
       style="fill:none;stroke:#ff0000;stroke-width:4;stroke-linecap:round;stroke-linejoin:miter;stroke-miterlimit:4;stroke-opacity:1;stroke-dasharray:none"
       d="m -388,424.36218 16,16"
       id="path4231"
       inkscape:connector-curvature="0" />
    <path
       style="fill:none;stroke:#ff0000;stroke-width:4;stroke-linecap:round;stroke-linejoin:miter;stroke-miterlimit:4;stroke-opacity:1;stroke-dasharray:none"
       d="m -388,440.36218 16,-16"
       id="path4233"
       inkscape:connector-curvature="0" />
    <path
       inkscape:connector-curvature="0"
       style="fill:#800080;fill-opacity:1;stroke:none"
       d="m -356,416.375 0,4 0,24 0,4 32,0 0,-4 0,-24 0,-4 -4,0 -24,0 -4,0 z m 4,4 24,0 0,24 -24,0 0,-24 z"
       id="rect4235" />
    <g
       id="g4999"
       transform="matrix(3.375,0,0,3.375,650.5,-951.86017)"
       inkscape:export-xdpi="90"
       inkscape:export-ydpi="90">
      <rect
         y="248.36218"
         x="-248"
         height="8"
         width="8"
         id="rect4121-2"
         style="fill:#000000;fill-opacity:1;stroke:none" />
      <rect
         y="248.36218"
         x="-208"
         height="8"
         width="8"
         id="rect4123-5"
         style="fill:#000000;fill-opacity:1;stroke:none" />
      <rect
         y="248.36218"
         x="-168"
         height="8"
         width="8"
         id="rect4125-0"
         style="fill:#000000;fill-opacity:1;stroke:none" />
      <rect
         y="248.36218"
         x="-128"
         height="8"
         width="8"
         id="rect4127-9"
         style="fill:#000000;fill-opacity:1;stroke:none" />
      <rect
         y="220.36218"
         x="-236"
         height="8"
         width="8"
         id="rect4014-4"
         style="fill:#000000;fill-opacity:1;stroke:none" />
      <rect
         y="220.36218"
         x="-196"
         height="8"
         width="8"
         id="rect4016-7"
         style="fill:#000000;fill-opacity:1;stroke:none" />
      <rect
         y="220.36218"
         x="-156"
         height="8"
         width="8"
         id="rect4018-8"
         style="fill:#000000;fill-opacity:1;stroke:none" />
      <rect
         y="220.36218"
         x="-116"
         height="8"
         width="8"
         id="rect4020-3"
         style="fill:#000000;fill-opacity:1;stroke:none" />
      <rect
         y="288.36218"
         x="-248"
         height="8"
         width="8"
         id="rect4129-5"
         style="fill:#000000;fill-opacity:1;stroke:none" />
      <rect
         y="288.36218"
         x="-208"
         height="8"
         width="8"
         id="rect4131-1"
         style="fill:#000000;fill-opacity:1;stroke:none" />
      <rect
         y="288.36218"
         x="-168"
         height="8"
         width="8"
         id="rect4133-2"
         style="fill:#000000;fill-opacity:1;stroke:none" />
      <rect
         y="288.36218"
         x="-128"
         height="8"
         width="4"
         id="rect4135-0"
         style="fill:#000000;fill-opacity:1;stroke:none" />
      <rect
         y="300.34937"
         x="-236"
         height="8"
         width="8"
         id="rect4014-2-1"
         style="fill:#000000;fill-opacity:1;stroke:none" />
      <rect
         y="300.34937"
         x="-196"
         height="8"
         width="8"
         id="rect4016-3-6"
         style="fill:#000000;fill-opacity:1;stroke:none" />
      <rect
         y="300.34937"
         x="-156"
         height="8"
         width="8"
         id="rect4018-3-4"
         style="fill:#000000;fill-opacity:1;stroke:none" />
      <rect
         y="304.36218"
         x="-116"
         height="3.9871826"
         width="8"
         id="rect4020-4-0"
         style="fill:#000000;fill-opacity:1;stroke:none" />
      <rect
         y="168.36218"
         x="-144"
         height="8"
         width="8"
         id="rect3959-6"
         style="fill:#000000;fill-opacity:1;stroke:none" />
      <rect
         y="168.36218"
         x="-104"
         height="8"
         width="8"
         id="rect3961-18"
         style="fill:#000000;fill-opacity:1;stroke:none" />
      <rect
         y="156.36218"
         x="-196"
         height="8"
         width="8"
         id="rect3927-9"
         style="fill:#000000;fill-opacity:1;stroke:none" />
      <path
         id="rect2995-84"
         d="m -252,152.36218 0,40 40,0 0,-40 -40,0 z m 4,4 32,0 0,32 -32,0 0,-32 z"
         style="fill:#ff00ff;fill-opacity:1;stroke:none"
         inkscape:connector-curvature="0" />
      <path
         id="rect2995-1-14"
         d="m -212,152.36218 0,40 40,0 0,-40 -40,0 z m 4,4 32,0 0,32 -32,0 0,-32 z"
         style="fill:#ff00ff;fill-opacity:1;stroke:none"
         inkscape:connector-curvature="0" />
      <path
         id="rect2995-1-4-5-2-3"
         d="m -212,312.34936 0,40 40,0 0,-40 -40,0 z m 4,4 32,0 0,32 -32,0 0,-32 z"
         style="fill:#ff00ff;fill-opacity:1;stroke:none"
         inkscape:connector-curvature="0" />
      <path
         id="rect2995-7-4-1-7-9"
         d="m -172,312.34936 0,40 40,0 0,-40 -40,0 z m 4,4 32,0 0,32 -32,0 0,-32 z"
         style="fill:#ff00ff;fill-opacity:1;stroke:none"
         inkscape:connector-curvature="0" />
      <path
         id="rect2995-1-4-8-1-6-8"
         d="m -132,312.33654 0,40 40,0 0,-40 -40,0 z m 4,4 32,0 0,32 -32,0 0,-32 z"
         style="fill:#ff00ff;fill-opacity:1;stroke:none"
         inkscape:connector-curvature="0" />
      <path
         id="rect2995-7-45-1-8"
         d="m -252,352.36218 0,40 40,0 0,-40 -40,0 z m 4,4 32,0 0,32 -32,0 0,-32 z"
         style="fill:#ff00ff;fill-opacity:1;stroke:none"
         inkscape:connector-curvature="0" />
      <path
         id="rect2995-1-4-5-4-0"
         d="m -212,352.34936 0,40 40,0 0,-40 -40,0 z m 4,4 32,0 0,32 -32,0 0,-32 z"
         style="fill:#ff00ff;fill-opacity:1;stroke:none"
         inkscape:connector-curvature="0" />
      <path
         id="rect2995-7-4-1-2-8"
         d="m -172,352.34936 0,40 40,0 0,-40 -40,0 z m 4,4 32,0 0,32 -32,0 0,-32 z"
         style="fill:#ff00ff;fill-opacity:1;stroke:none"
         inkscape:connector-curvature="0" />
      <path
         id="rect2995-1-4-8-1-3-7"
         d="m -132,352.33654 0,40 40,0 0,-40 -40,0 z m 4,4 32,0 0,32 -32,0 0,-32 z"
         style="fill:#ff00ff;fill-opacity:1;stroke:none"
         inkscape:connector-curvature="0" />
      <path
         d="m -408,232.36218 c 0,6.62742 -5.37258,12 -12,12 -6.62742,0 -12,-5.37258 -12,-12 0,-6.62741 5.37258,-12 12,-12 6.62742,0 12,5.37259 12,12 z"
         sodipodi:ry="12"
         sodipodi:rx="12"
         sodipodi:cy="232.36218"
         sodipodi:cx="-420"
         id="path3145-7"
         style="fill:#0000ff;fill-opacity:1;stroke:#000000;stroke-width:2;stroke-miterlimit:4;stroke-dasharray:none"
         sodipodi:type="arc"
         transform="translate(188,-59.999997)" />
      <path
         d="m -368,232.36218 c 0,6.62742 -5.37258,12 -12,12 -6.62742,0 -12,-5.37258 -12,-12 0,-6.62741 5.37258,-12 12,-12 6.62742,0 12,5.37259 12,12 z"
         sodipodi:ry="12"
         sodipodi:rx="12"
         sodipodi:cy="232.36218"
         sodipodi:cx="-380"
         id="path3917-83"
         style="fill:#ffff00;fill-opacity:1;stroke:#000000;stroke-width:2;stroke-miterlimit:4;stroke-opacity:1;stroke-dasharray:none;stroke-dashoffset:0"
         sodipodi:type="arc"
         transform="translate(188,-59.999997)" />
      <rect
         y="156.34937"
         x="-116"
         height="8"
         width="8"
         id="rect3927-2-8"
         style="fill:#000000;fill-opacity:1;stroke:none" />
      <path
         id="rect2995-2-3"
         d="m -172,152.36218 0,40 40,0 0,-40 -40,0 z m 4,4 32,0 0,32 -32,0 0,-32 z"
         style="fill:#ff00ff;fill-opacity:1;stroke:none"
         inkscape:connector-curvature="0" />
      <path
         id="rect2995-1-1-7"
         d="m -132,152.36218 0,40 40,0 0,-40 -40,0 z m 4,4 32,0 0,32 -32,0 0,-32 z"
         style="fill:#ff00ff;fill-opacity:1;stroke:none"
         inkscape:connector-curvature="0" />
      <path
         d="m -408,232.36218 c 0,6.62742 -5.37258,12 -12,12 -6.62742,0 -12,-5.37258 -12,-12 0,-6.62741 5.37258,-12 12,-12 6.62742,0 12,5.37259 12,12 z"
         sodipodi:ry="12"
         sodipodi:rx="12"
         sodipodi:cy="232.36218"
         sodipodi:cx="-420"
         id="path3145-6-1"
         style="fill:#ffff00;fill-opacity:1;stroke:#000000;stroke-width:2;stroke-miterlimit:4;stroke-dasharray:none"
         sodipodi:type="arc"
         transform="translate(268,-60.012817)" />
      <path
         d="m -368,232.36218 c 0,6.62742 -5.37258,12 -12,12 -6.62742,0 -12,-5.37258 -12,-12 0,-6.62741 5.37258,-12 12,-12 6.62742,0 12,5.37259 12,12 z"
         sodipodi:ry="12"
         sodipodi:rx="12"
         sodipodi:cy="232.36218"
         sodipodi:cx="-380"
         id="path3917-8-0"
         style="fill:#ff0000;fill-opacity:1;stroke:#000000;stroke-width:2;stroke-miterlimit:4;stroke-opacity:1;stroke-dasharray:none;stroke-dashoffset:0"
         sodipodi:type="arc"
         transform="translate(268,-60.012817)" />
      <rect
         y="208.34937"
         x="-144"
         height="8"
         width="8"
         id="rect3959-5-7"
         style="fill:#000000;fill-opacity:1;stroke:none" />
      <rect
         y="208.34937"
         x="-104"
         height="8"
         width="8"
         id="rect3961-7-3"
         style="fill:#000000;fill-opacity:1;stroke:none" />
      <rect
         y="196.34937"
         x="-196"
         height="8"
         width="8"
         id="rect3927-6-4"
         style="fill:#000000;fill-opacity:1;stroke:none" />
      <path
         id="rect2995-18-9"
         d="m -252,192.36218 0,40 40,0 0,-40 -40,0 z m 4,4 32,0 0,32 -32,0 0,-32 z"
         style="fill:#ff00ff;fill-opacity:1;stroke:none"
         inkscape:connector-curvature="0" />
      <path
         id="rect2995-1-9-6"
         d="m -212,192.36218 0,40 40,0 0,-40 -40,0 z m 4,4 32,0 0,32 -32,0 0,-32 z"
         style="fill:#ff00ff;fill-opacity:1;stroke:none"
         inkscape:connector-curvature="0" />
      <path
         d="m -408,232.36218 c 0,6.62742 -5.37258,12 -12,12 -6.62742,0 -12,-5.37258 -12,-12 0,-6.62741 5.37258,-12 12,-12 6.62742,0 12,5.37259 12,12 z"
         sodipodi:ry="12"
         sodipodi:rx="12"
         sodipodi:cy="232.36218"
         sodipodi:cx="-420"
         id="path3145-2-5"
         style="fill:#ffff00;fill-opacity:1;stroke:#000000;stroke-width:2;stroke-miterlimit:4;stroke-dasharray:none"
         sodipodi:type="arc"
         transform="translate(188,-20.012807)" />
      <path
         d="m -368,232.36218 c 0,6.62742 -5.37258,12 -12,12 -6.62742,0 -12,-5.37258 -12,-12 0,-6.62741 5.37258,-12 12,-12 6.62742,0 12,5.37259 12,12 z"
         sodipodi:ry="12"
         sodipodi:rx="12"
         sodipodi:cy="232.36218"
         sodipodi:cx="-380"
         id="path3917-7-1"
         style="fill:#ff0000;fill-opacity:1;stroke:#000000;stroke-width:2;stroke-miterlimit:4;stroke-opacity:1;stroke-dasharray:none;stroke-dashoffset:0"
         sodipodi:type="arc"
         transform="translate(188,-20.012807)" />
      <rect
         y="196.33655"
         x="-116"
         height="8"
         width="8"
         id="rect3927-2-9-09"
         style="fill:#000000;fill-opacity:1;stroke:none" />
      <path
         id="rect2995-2-5-9"
         d="m -172,192.36218 0,40 40,0 0,-40 -40,0 z m 4,4 32,0 0,32 -32,0 0,-32 z"
         style="fill:#ff00ff;fill-opacity:1;stroke:none"
         inkscape:connector-curvature="0" />
      <path
         id="rect2995-1-1-4-6"
         d="m -132,192.36218 0,40 40,0 0,-40 -40,0 z m 4,4 32,0 0,32 -32,0 0,-32 z"
         style="fill:#ff00ff;fill-opacity:1;stroke:none"
         inkscape:connector-curvature="0" />
      <path
         d="m -408,232.36218 c 0,6.62742 -5.37258,12 -12,12 -6.62742,0 -12,-5.37258 -12,-12 0,-6.62741 5.37258,-12 12,-12 6.62742,0 12,5.37259 12,12 z"
         sodipodi:ry="12"
         sodipodi:rx="12"
         sodipodi:cy="232.36218"
         sodipodi:cx="-420"
         id="path3145-6-3-83"
         style="fill:#ff0000;fill-opacity:1;stroke:#000000;stroke-width:2;stroke-miterlimit:4;stroke-dasharray:none"
         sodipodi:type="arc"
         transform="translate(268,-20.025627)" />
      <path
         d="m -368,232.36218 c 0,6.62742 -5.37258,12 -12,12 -6.62742,0 -12,-5.37258 -12,-12 0,-6.62741 5.37258,-12 12,-12 6.62742,0 12,5.37259 12,12 z"
         sodipodi:ry="12"
         sodipodi:rx="12"
         sodipodi:cy="232.36218"
         sodipodi:cx="-380"
         id="path3917-8-1-4"
         style="fill:#00ffff;fill-opacity:1;stroke:#000000;stroke-width:2;stroke-miterlimit:4;stroke-opacity:1;stroke-dasharray:none;stroke-dashoffset:0"
         sodipodi:type="arc"
         transform="translate(268,-20.025627)" />
      <rect
         y="248.34937"
         x="-144"
         height="8"
         width="8"
         id="rect3959-1-8"
         style="fill:#000000;fill-opacity:1;stroke:none" />
      <rect
         y="248.34937"
         x="-104"
         height="8"
         width="8"
         id="rect3961-1-4"
         style="fill:#000000;fill-opacity:1;stroke:none" />
      <rect
         y="236.34937"
         x="-196"
         height="8"
         width="8"
         id="rect3927-3-9"
         style="fill:#000000;fill-opacity:1;stroke:none" />
      <path
         id="rect2995-8-9"
         d="m -252,232.36218 0,40 40,0 0,-40 -40,0 z m 4,4 32,0 0,32 -32,0 0,-32 z"
         style="fill:#ff00ff;fill-opacity:1;stroke:none"
         inkscape:connector-curvature="0" />
      <path
         id="rect2995-1-7-2"
         d="m -212,232.34936 0,40 40,0 0,-40 -40,0 z m 4,4 32,0 0,32 -32,0 0,-32 z"
         style="fill:#ff00ff;fill-opacity:1;stroke:none"
         inkscape:connector-curvature="0" />
      <path
         d="m -408,232.36218 c 0,6.62742 -5.37258,12 -12,12 -6.62742,0 -12,-5.37258 -12,-12 0,-6.62741 5.37258,-12 12,-12 6.62742,0 12,5.37259 12,12 z"
         sodipodi:ry="12"
         sodipodi:rx="12"
         sodipodi:cy="232.36218"
         sodipodi:cx="-420"
         id="path3145-4-5"
         style="fill:#ffff00;fill-opacity:1;stroke:#000000;stroke-width:2;stroke-miterlimit:4;stroke-dasharray:none"
         sodipodi:type="arc"
         transform="translate(188,19.987183)" />
      <path
         d="m -368,232.36218 c 0,6.62742 -5.37258,12 -12,12 -6.62742,0 -12,-5.37258 -12,-12 0,-6.62741 5.37258,-12 12,-12 6.62742,0 12,5.37259 12,12 z"
         sodipodi:ry="12"
         sodipodi:rx="12"
         sodipodi:cy="232.36218"
         sodipodi:cx="-380"
         id="path3917-2-5"
         style="fill:#ff0000;fill-opacity:1;stroke:#000000;stroke-width:2;stroke-miterlimit:4;stroke-opacity:1;stroke-dasharray:none;stroke-dashoffset:0"
         sodipodi:type="arc"
         transform="translate(188,19.987183)" />
      <rect
         y="236.33655"
         x="-116"
         height="8"
         width="8"
         id="rect3927-2-7-3"
         style="fill:#000000;fill-opacity:1;stroke:none" />
      <path
         id="rect2995-2-7-3"
         d="m -172,232.36218 0,40 40,0 0,-40 -40,0 z m 4,4 32,0 0,32 -32,0 0,-32 z"
         style="fill:#ff00ff;fill-opacity:1;stroke:none"
         inkscape:connector-curvature="0" />
      <path
         id="rect2995-1-1-9-3"
         d="m -132,232.36218 0,40 40,0 0,-40 -40,0 z m 4,4 32,0 0,32 -32,0 0,-32 z"
         style="fill:#ff00ff;fill-opacity:1;stroke:none"
         inkscape:connector-curvature="0" />
      <path
         d="m -408,232.36218 c 0,6.62742 -5.37258,12 -12,12 -6.62742,0 -12,-5.37258 -12,-12 0,-6.62741 5.37258,-12 12,-12 6.62742,0 12,5.37259 12,12 z"
         sodipodi:ry="12"
         sodipodi:rx="12"
         sodipodi:cy="232.36218"
         sodipodi:cx="-420"
         id="path3145-6-31-7"
         style="fill:#ff0000;fill-opacity:1;stroke:#000000;stroke-width:2;stroke-miterlimit:4;stroke-dasharray:none"
         sodipodi:type="arc"
         transform="translate(268,19.974363)" />
      <path
         d="m -368,232.36218 c 0,6.62742 -5.37258,12 -12,12 -6.62742,0 -12,-5.37258 -12,-12 0,-6.62741 5.37258,-12 12,-12 6.62742,0 12,5.37259 12,12 z"
         sodipodi:ry="12"
         sodipodi:rx="12"
         sodipodi:cy="232.36218"
         sodipodi:cx="-380"
         id="path3917-8-9-4"
         style="fill:#00ffff;fill-opacity:1;stroke:#000000;stroke-width:2;stroke-miterlimit:4;stroke-opacity:1;stroke-dasharray:none;stroke-dashoffset:0"
         sodipodi:type="arc"
         transform="translate(268,19.974363)" />
      <rect
         y="288.33655"
         x="-144"
         height="8"
         width="8"
         id="rect3959-5-8-3"
         style="fill:#000000;fill-opacity:1;stroke:none" />
      <rect
         y="288.33655"
         x="-104"
         height="8"
         width="8"
         id="rect3961-7-6-8"
         style="fill:#000000;fill-opacity:1;stroke:none" />
      <rect
         y="276.33655"
         x="-196"
         height="8"
         width="8"
         id="rect3927-6-5-0"
         style="fill:#000000;fill-opacity:1;stroke:none" />
      <path
         id="rect2995-18-0-8"
         d="m -252,272.36218 0,40 40,0 0,-40 -40,0 z m 4,4 32,0 0,32 -32,0 0,-32 z"
         style="fill:#ff00ff;fill-opacity:1;stroke:none"
         inkscape:connector-curvature="0" />
      <path
         id="rect2995-1-9-2-8"
         d="m -212,272.36218 0,40 40,0 0,-40 -40,0 z m 4,4 32,0 0,32 -32,0 0,-32 z"
         style="fill:#ff00ff;fill-opacity:1;stroke:none"
         inkscape:connector-curvature="0" />
      <path
         d="m -408,232.36218 c 0,6.62742 -5.37258,12 -12,12 -6.62742,0 -12,-5.37258 -12,-12 0,-6.62741 5.37258,-12 12,-12 6.62742,0 12,5.37259 12,12 z"
         sodipodi:ry="12"
         sodipodi:rx="12"
         sodipodi:cy="232.36218"
         sodipodi:cx="-420"
         id="path3145-2-8-0"
         style="fill:#ff0000;fill-opacity:1;stroke:#000000;stroke-width:2;stroke-miterlimit:4;stroke-dasharray:none"
         sodipodi:type="arc"
         transform="translate(188,59.974373)" />
      <path
         d="m -368,232.36218 c 0,6.62742 -5.37258,12 -12,12 -6.62742,0 -12,-5.37258 -12,-12 0,-6.62741 5.37258,-12 12,-12 6.62742,0 12,5.37259 12,12 z"
         sodipodi:ry="12"
         sodipodi:rx="12"
         sodipodi:cy="232.36218"
         sodipodi:cx="-380"
         id="path3917-7-6-6"
         style="fill:#00ffff;fill-opacity:1;stroke:#000000;stroke-width:2;stroke-miterlimit:4;stroke-opacity:1;stroke-dasharray:none;stroke-dashoffset:0"
         sodipodi:type="arc"
         transform="translate(188,59.974373)" />
      <rect
         y="276.32373"
         x="-116"
         height="8"
         width="8"
         id="rect3927-2-9-0-8"
         style="fill:#000000;fill-opacity:1;stroke:none" />
      <path
         id="rect2995-2-5-2-1"
         d="m -172,272.36218 0,40 40,0 0,-40 -40,0 z m 4,4 32,0 0,32 -32,0 0,-32 z"
         style="fill:#ff00ff;fill-opacity:1;stroke:none"
         inkscape:connector-curvature="0" />
      <path
         id="rect2995-1-1-4-4-9"
         d="m -132,272.36218 0,40 40,0 0,-40 -40,0 z m 4,4 32,0 0,32 -32,0 0,-32 z"
         style="fill:#ff00ff;fill-opacity:1;stroke:none"
         inkscape:connector-curvature="0" />
      <path
         d="m -408,232.36218 c 0,6.62742 -5.37258,12 -12,12 -6.62742,0 -12,-5.37258 -12,-12 0,-6.62741 5.37258,-12 12,-12 6.62742,0 12,5.37259 12,12 z"
         sodipodi:ry="12"
         sodipodi:rx="12"
         sodipodi:cy="232.36218"
         sodipodi:cx="-420"
         id="path3145-6-3-8-8"
         style="fill:#00ffff;fill-opacity:1;stroke:#000000;stroke-width:2;stroke-miterlimit:4;stroke-dasharray:none"
         sodipodi:type="arc"
         transform="translate(268,59.961553)" />
      <path
         d="m -368,232.36218 c 0,6.62742 -5.37258,12 -12,12 -6.62742,0 -12,-5.37258 -12,-12 0,-6.62741 5.37258,-12 12,-12 6.62742,0 12,5.37259 12,12 z"
         sodipodi:ry="12"
         sodipodi:rx="12"
         sodipodi:cy="232.36218"
         sodipodi:cx="-380"
         id="path3917-8-1-6-9"
         style="fill:#333333;fill-opacity:1;stroke:#000000;stroke-width:2;stroke-miterlimit:4;stroke-opacity:1;stroke-dasharray:none;stroke-dashoffset:0"
         sodipodi:type="arc"
         transform="translate(268,59.961553)" />
      <path
         id="rect2995-5-7"
         d="m -252,312.375 0,40 40,0 0,-40 -40,0 z m 4,4 32,0 0,32 -32,0 0,-32 z"
         style="fill:#ff00ff;fill-opacity:1;stroke:none"
         inkscape:connector-curvature="0" />
      <path
         d="m -408,232.36218 c 0,6.62742 -5.37258,12 -12,12 -6.62742,0 -12,-5.37258 -12,-12 0,-6.62741 5.37258,-12 12,-12 6.62742,0 12,5.37259 12,12 z"
         sodipodi:ry="12"
         sodipodi:rx="12"
         sodipodi:cy="232.36218"
         sodipodi:cx="-420"
         id="path3145-0-2"
         style="fill:#ffffff;fill-opacity:1;stroke:#000000;stroke-width:2;stroke-miterlimit:4;stroke-dasharray:none"
         sodipodi:type="arc"
         transform="translate(188,100)" />
      <path
         d="m -372,392.36218 c 0,4.41828 -3.58172,8 -8,8 -4.41828,0 -8,-3.58172 -8,-8 0,-4.41828 3.58172,-8 8,-8 4.41828,0 8,3.58172 8,8 z"
         sodipodi:ry="8"
         sodipodi:rx="8"
         sodipodi:cy="392.36218"
         sodipodi:cx="-380"
         id="path4208-2"
         style="fill:#ff8080;fill-opacity:1;stroke:#804040;stroke-opacity:1"
         sodipodi:type="arc"
         transform="translate(188,-59.999997)" />
      <path
         d="m -332,392.36218 c 0,4.41828 -3.58172,8 -8,8 -4.41828,0 -8,-3.58172 -8,-8 0,-4.41828 3.58172,-8 8,-8 4.41828,0 8,3.58172 8,8 z"
         sodipodi:ry="8"
         sodipodi:rx="8"
         sodipodi:cy="392.36218"
         sodipodi:cx="-340"
         id="path4210-8"
         style="fill:#ffff80;fill-opacity:1;stroke:#808040;stroke-width:1;stroke-miterlimit:4;stroke-opacity:1;stroke-dasharray:none;stroke-dashoffset:0"
         sodipodi:type="arc"
         transform="translate(188,-59.999997)" />
      <path
         d="m -292,392.36218 c 0,4.41828 -3.58172,8 -8,8 -4.41828,0 -8,-3.58172 -8,-8 0,-4.41828 3.58172,-8 8,-8 4.41828,0 8,3.58172 8,8 z"
         sodipodi:ry="8"
         sodipodi:rx="8"
         sodipodi:cy="392.36218"
         sodipodi:cx="-300"
         id="path4212-2"
         style="fill:#80ff80;fill-opacity:1;stroke:#408040;stroke-width:1;stroke-miterlimit:4;stroke-opacity:1;stroke-dasharray:none;stroke-dashoffset:0"
         sodipodi:type="arc"
         transform="translate(188,-59.999997)" />
      <path
         id="rect4214-8"
         d="m -248,356.375 0,4 0,4 4,0 0,-4 4,0 0,-4 -4,0 -4,0 z m 24,0 0,4 4,0 0,4 4,0 0,-8 -8,0 z m -24,24 0,4 0,4 8,0 0,-4 -4,0 0,-4 -4,0 z m 28,0 0,4 -4,0 0,4 8,0 0,-4 0,-4 -4,0 z"
         style="fill:#00ff00;fill-opacity:1;stroke:none"
         inkscape:connector-curvature="0" />
      <path
         inkscape:connector-curvature="0"
         id="path4231-9"
         d="m -200,364.36218 16,16"
         style="fill:none;stroke:#ff0000;stroke-width:4;stroke-linecap:round;stroke-linejoin:miter;stroke-miterlimit:4;stroke-opacity:1;stroke-dasharray:none" />
      <path
         inkscape:connector-curvature="0"
         id="path4233-0"
         d="m -200,380.36218 16,-16"
         style="fill:none;stroke:#ff0000;stroke-width:4;stroke-linecap:round;stroke-linejoin:miter;stroke-miterlimit:4;stroke-opacity:1;stroke-dasharray:none" />
      <path
         id="rect4235-7"
         d="m -168,356.375 0,4 0,24 0,4 32,0 0,-4 0,-24 0,-4 -4,0 -24,0 -4,0 z m 4,4 24,0 0,24 -24,0 0,-24 z"
         style="fill:#800080;fill-opacity:1;stroke:none"
         inkscape:connector-curvature="0" />
    </g>
  </g>
</svg>
