<?xml version="1.0" encoding="UTF-8" standalone="no"?>
<!-- Created with Inkscape (http://www.inkscape.org/) -->

<svg
   xmlns:dc="http://purl.org/dc/elements/1.1/"
   xmlns:cc="http://creativecommons.org/ns#"
   xmlns:rdf="http://www.w3.org/1999/02/22-rdf-syntax-ns#"
   xmlns:svg="http://www.w3.org/2000/svg"
   xmlns="http://www.w3.org/2000/svg"
   xmlns:sodipodi="http://sodipodi.sourceforge.net/DTD/sodipodi-0.dtd"
   xmlns:inkscape="http://www.inkscape.org/namespaces/inkscape"
   width="744.09448819"
   height="1052.3622047"
   id="svg2985"
   version="1.1"
   inkscape:version="0.48.4 r9939"
   sodipodi:docname="New document 2">
  <defs
     id="defs2987" />
  <sodipodi:namedview
     id="base"
     pagecolor="#ffffff"
     bordercolor="#ffffff"
     borderopacity="0.0"
     inkscape:pageopacity="0.0"
     inkscape:pageshadow="0"
     inkscape:zoom="4.4357162"
     inkscape:cx="-627.79421"
     inkscape:cy="925.85558"
     inkscape:document-units="px"
     inkscape:current-layer="layer1"
     showgrid="true"
     inkscape:snap-bbox="true"
     inkscape:window-width="1440"
     inkscape:window-height="838"
     inkscape:window-x="-8"
     inkscape:window-y="-8"
     inkscape:window-maximized="1">
    <inkscape:grid
       type="xygrid"
       id="grid2993"
       empspacing="8"
       visible="true"
       enabled="true"
       snapvisiblegridlinesonly="true"
       spacingx="4px"
       spacingy="4px" />
  </sodipodi:namedview>
  <metadata
     id="metadata2990">
    <rdf:RDF>
      <cc:Work
         rdf:about="">
        <dc:format>image/svg+xml</dc:format>
        <dc:type
           rdf:resource="http://purl.org/dc/dcmitype/StillImage" />
        <dc:title></dc:title>
      </cc:Work>
    </rdf:RDF>
  </metadata>
  <g
     inkscape:label="Layer 1"
     inkscape:groupmode="layer"
     id="layer1">
    <g
       id="g3415">
      <rect
         y="136.36218"
         x="-736"
         height="8"
         width="16"
         id="rect3353"
         style="fill:#000000;fill-opacity:1;stroke:none" />
      <rect
         y="136.36218"
         x="-704"
         height="8"
         width="16"
         id="rect3353-8"
         style="fill:#000000;fill-opacity:1;stroke:none" />
      <rect
         y="136.36218"
         x="-672"
         height="8"
         width="16"
         id="rect3353-6"
         style="fill:#000000;fill-opacity:1;stroke:none" />
      <rect
         y="136.36218"
         x="-640"
         height="8"
         width="16"
         id="rect3353-5"
         style="fill:#000000;fill-opacity:1;stroke:none" />
      <rect
         y="168.36218"
         x="-736"
         height="8"
         width="16"
         id="rect3353-0"
         style="fill:#000000;fill-opacity:1;stroke:none" />
      <rect
         y="168.36218"
         x="-704"
         height="8"
         width="16"
         id="rect3353-2"
         style="fill:#000000;fill-opacity:1;stroke:none" />
      <rect
         y="168.36218"
         x="-672"
         height="8"
         width="16"
         id="rect3353-86"
         style="fill:#000000;fill-opacity:1;stroke:none" />
      <rect
         y="168.36218"
         x="-640"
         height="8"
         width="16"
         id="rect3353-02"
         style="fill:#000000;fill-opacity:1;stroke:none" />
      <rect
         y="108.36218"
         x="-724"
         height="16"
         width="8"
         id="rect3291"
         style="fill:#000000;fill-opacity:1;stroke:none" />
      <rect
         y="108.36218"
         x="-692"
         height="16"
         width="8"
         id="rect3291-4"
         style="fill:#000000;fill-opacity:1;stroke:none" />
      <rect
         y="108.36218"
         x="-660"
         height="16"
         width="8"
         id="rect3291-2"
         style="fill:#000000;fill-opacity:1;stroke:none" />
      <rect
         y="108.36218"
         x="-628"
         height="16"
         width="8"
         id="rect3291-7"
         style="fill:#000000;fill-opacity:1;stroke:none" />
      <rect
         y="172.36218"
         x="-724"
         height="16"
         width="8"
         id="rect3291-79"
         style="fill:#000000;fill-opacity:1;stroke:none" />
      <rect
         y="172.36218"
         x="-692"
         height="16"
         width="8"
         id="rect3291-3"
         style="fill:#000000;fill-opacity:1;stroke:none" />
      <rect
         y="172.36218"
         x="-660"
         height="16"
         width="8"
         id="rect3291-1"
         style="fill:#000000;fill-opacity:1;stroke:none" />
      <rect
         y="172.36218"
         x="-628"
         height="16"
         width="8"
         id="rect3291-9"
         style="fill:#000000;fill-opacity:1;stroke:none" />
      <rect
         y="72.362183"
         x="-656"
         height="8"
         width="16"
         id="rect3229"
         style="fill:#000000;fill-opacity:1;stroke:none" />
      <rect
         y="72.362183"
         x="-624"
         height="8"
         width="16"
         id="rect3229-1"
         style="fill:#000000;fill-opacity:1;stroke:none" />
      <rect
         y="104.36218"
         x="-656"
         height="8"
         width="16"
         id="rect3229-2"
         style="fill:#000000;fill-opacity:1;stroke:none" />
      <rect
         y="104.36218"
         x="-624"
         height="8"
         width="16"
         id="rect3229-3"
         style="fill:#000000;fill-opacity:1;stroke:none" />
      <rect
         y="136.36218"
         x="-624"
         height="8"
         width="16"
         id="rect3229-34"
         style="fill:#000000;fill-opacity:1;stroke:none" />
      <rect
         y="136.36218"
         x="-656"
         height="8"
         width="16"
         id="rect3229-11"
         style="fill:#000000;fill-opacity:1;stroke:none" />
      <rect
         y="168.36218"
         x="-656"
         height="8"
         width="16"
         id="rect3229-38"
         style="fill:#000000;fill-opacity:1;stroke:none" />
      <rect
         y="168.36218"
         x="-624"
         height="8"
         width="16"
         id="rect3229-7"
         style="fill:#000000;fill-opacity:1;stroke:none" />
      <rect
         y="60.362183"
         x="-692"
         height="16"
         width="8"
         id="rect3167"
         style="fill:#000000;fill-opacity:1;stroke:none" />
      <rect
         y="60.362183"
         x="-628"
         height="16"
         width="8"
         id="rect3167-8"
         style="fill:#000000;fill-opacity:1;stroke:none" />
      <rect
         y="92.362183"
         x="-692"
         height="16"
         width="8"
         id="rect3167-9"
         style="fill:#000000;fill-opacity:1;stroke:none" />
      <rect
         y="92.362183"
         x="-628"
         height="16"
         width="8"
         id="rect3167-2"
         style="fill:#000000;fill-opacity:1;stroke:none" />
      <rect
         y="124.36218"
         x="-692"
         height="16"
         width="8"
         id="rect3167-7"
         style="fill:#000000;fill-opacity:1;stroke:none" />
      <rect
         y="124.36218"
         x="-628"
         height="16"
         width="8"
         id="rect3167-95"
         style="fill:#000000;fill-opacity:1;stroke:none" />
      <rect
         y="156.36218"
         x="-692"
         height="16"
         width="8"
         id="rect3167-4"
         style="fill:#000000;fill-opacity:1;stroke:none" />
      <rect
         y="156.36218"
         x="-628"
         height="16"
         width="8"
         id="rect3167-3"
         style="fill:#000000;fill-opacity:1;stroke:none" />
      <path
         d="m -708,76.362183 a 12,12 0 1 1 -24,0 12,12 0 1 1 24,0 z"
         sodipodi:ry="12"
         sodipodi:rx="12"
         sodipodi:cy="76.362183"
         sodipodi:cx="-720"
         id="path2995"
         style="fill:#0000ff;fill-opacity:1;stroke:#000000;stroke-width:2;stroke-miterlimit:4;stroke-opacity:1;stroke-dasharray:none;stroke-dashoffset:0"
         sodipodi:type="arc" />
      <path
         d="m -708,76.362183 a 12,12 0 1 1 -24,0 12,12 0 1 1 24,0 z"
         sodipodi:ry="12"
         sodipodi:rx="12"
         sodipodi:cy="76.362183"
         sodipodi:cx="-720"
         id="path2995-4"
         style="fill:#ffff00;fill-opacity:1;stroke:#000000;stroke-width:2;stroke-miterlimit:4;stroke-opacity:1;stroke-dasharray:none;stroke-dashoffset:0"
         sodipodi:type="arc"
         transform="translate(32,0)" />
      <path
         d="m -708,76.362183 a 12,12 0 1 1 -24,0 12,12 0 1 1 24,0 z"
         sodipodi:ry="12"
         sodipodi:rx="12"
         sodipodi:cy="76.362183"
         sodipodi:cx="-720"
         id="path2995-9"
         style="fill:#ffff00;fill-opacity:1;stroke:#000000;stroke-width:2;stroke-miterlimit:4;stroke-opacity:1;stroke-dasharray:none;stroke-dashoffset:0"
         sodipodi:type="arc"
         transform="translate(0,32)" />
      <path
         d="m -708,76.362183 a 12,12 0 1 1 -24,0 12,12 0 1 1 24,0 z"
         sodipodi:ry="12"
         sodipodi:rx="12"
         sodipodi:cy="76.362183"
         sodipodi:cx="-720"
         id="path2995-4-8"
         style="fill:#ff0000;fill-opacity:1;stroke:#000000;stroke-width:2;stroke-miterlimit:4;stroke-opacity:1;stroke-dasharray:none;stroke-dashoffset:0"
         sodipodi:type="arc"
         transform="translate(32,32)" />
      <path
         d="m -708,76.362183 a 12,12 0 1 1 -24,0 12,12 0 1 1 24,0 z"
         sodipodi:ry="12"
         sodipodi:rx="12"
         sodipodi:cy="76.362183"
         sodipodi:cx="-720"
         id="path2995-2"
         style="fill:#ffff00;fill-opacity:1;stroke:#000000;stroke-width:2;stroke-miterlimit:4;stroke-opacity:1;stroke-dasharray:none;stroke-dashoffset:0"
         sodipodi:type="arc"
         transform="translate(64,0)" />
      <path
         d="m -708,76.362183 a 12,12 0 1 1 -24,0 12,12 0 1 1 24,0 z"
         sodipodi:ry="12"
         sodipodi:rx="12"
         sodipodi:cy="76.362183"
         sodipodi:cx="-720"
         id="path2995-4-5"
         style="fill:#ff0000;fill-opacity:1;stroke:#000000;stroke-width:2;stroke-miterlimit:4;stroke-opacity:1;stroke-dasharray:none;stroke-dashoffset:0"
         sodipodi:type="arc"
         transform="translate(96,0)" />
      <path
         d="m -708,76.362183 a 12,12 0 1 1 -24,0 12,12 0 1 1 24,0 z"
         sodipodi:ry="12"
         sodipodi:rx="12"
         sodipodi:cy="76.362183"
         sodipodi:cx="-720"
         id="path2995-9-7"
         style="fill:#ff0000;fill-opacity:1;stroke:#000000;stroke-width:2;stroke-miterlimit:4;stroke-opacity:1;stroke-dasharray:none;stroke-dashoffset:0"
         sodipodi:type="arc"
         transform="translate(64,32)" />
      <path
         d="m -708,76.362183 a 12,12 0 1 1 -24,0 12,12 0 1 1 24,0 z"
         sodipodi:ry="12"
         sodipodi:rx="12"
         sodipodi:cy="76.362183"
         sodipodi:cx="-720"
         id="path2995-4-8-1"
         style="fill:#00ffff;fill-opacity:1;stroke:#000000;stroke-width:2;stroke-miterlimit:4;stroke-opacity:1;stroke-dasharray:none;stroke-dashoffset:0"
         sodipodi:type="arc"
         transform="translate(96,32)" />
      <path
         d="m -708,76.362183 a 12,12 0 1 1 -24,0 12,12 0 1 1 24,0 z"
         sodipodi:ry="12"
         sodipodi:rx="12"
         sodipodi:cy="76.362183"
         sodipodi:cx="-720"
         id="path2995-27"
         style="fill:#ffff00;fill-opacity:1;stroke:#000000;stroke-width:2;stroke-miterlimit:4;stroke-opacity:1;stroke-dasharray:none;stroke-dashoffset:0"
         sodipodi:type="arc"
         transform="translate(0,64)" />
      <path
         d="m -708,76.362183 a 12,12 0 1 1 -24,0 12,12 0 1 1 24,0 z"
         sodipodi:ry="12"
         sodipodi:rx="12"
         sodipodi:cy="76.362183"
         sodipodi:cx="-720"
         id="path2995-4-1"
         style="fill:#ff0000;fill-opacity:1;stroke:#000000;stroke-width:2;stroke-miterlimit:4;stroke-opacity:1;stroke-dasharray:none;stroke-dashoffset:0"
         sodipodi:type="arc"
         transform="translate(32,64)" />
      <path
         d="m -708,76.362183 a 12,12 0 1 1 -24,0 12,12 0 1 1 24,0 z"
         sodipodi:ry="12"
         sodipodi:rx="12"
         sodipodi:cy="76.362183"
         sodipodi:cx="-720"
         id="path2995-9-2"
         style="fill:#ff0000;fill-opacity:1;stroke:#000000;stroke-width:2;stroke-miterlimit:4;stroke-opacity:1;stroke-dasharray:none;stroke-dashoffset:0"
         sodipodi:type="arc"
         transform="translate(0,96)" />
      <path
         d="m -708,76.362183 a 12,12 0 1 1 -24,0 12,12 0 1 1 24,0 z"
         sodipodi:ry="12"
         sodipodi:rx="12"
         sodipodi:cy="76.362183"
         sodipodi:cx="-720"
         id="path2995-4-8-2"
         style="fill:#00ffff;fill-opacity:1;stroke:#000000;stroke-width:2;stroke-miterlimit:4;stroke-opacity:1;stroke-dasharray:none;stroke-dashoffset:0"
         sodipodi:type="arc"
         transform="translate(32,96)" />
      <path
         d="m -708,76.362183 a 12,12 0 1 1 -24,0 12,12 0 1 1 24,0 z"
         sodipodi:ry="12"
         sodipodi:rx="12"
         sodipodi:cy="76.362183"
         sodipodi:cx="-720"
         id="path2995-2-1"
         style="fill:#ff0000;fill-opacity:1;stroke:#000000;stroke-width:2;stroke-miterlimit:4;stroke-opacity:1;stroke-dasharray:none;stroke-dashoffset:0"
         sodipodi:type="arc"
         transform="translate(64,64)" />
      <path
         d="m -708,76.362183 a 12,12 0 1 1 -24,0 12,12 0 1 1 24,0 z"
         sodipodi:ry="12"
         sodipodi:rx="12"
         sodipodi:cy="76.362183"
         sodipodi:cx="-720"
         id="path2995-4-5-8"
         style="fill:#00ffff;fill-opacity:1;stroke:#000000;stroke-width:2;stroke-miterlimit:4;stroke-opacity:1;stroke-dasharray:none;stroke-dashoffset:0"
         sodipodi:type="arc"
         transform="translate(96,64)" />
      <path
         d="m -708,76.362183 a 12,12 0 1 1 -24,0 12,12 0 1 1 24,0 z"
         sodipodi:ry="12"
         sodipodi:rx="12"
         sodipodi:cy="76.362183"
         sodipodi:cx="-720"
         id="path2995-9-7-7"
         style="fill:#00ffff;fill-opacity:1;stroke:#000000;stroke-width:2;stroke-miterlimit:4;stroke-opacity:1;stroke-dasharray:none;stroke-dashoffset:0"
         sodipodi:type="arc"
         transform="translate(64,96)" />
      <path
         d="m -708,76.362183 a 12,12 0 1 1 -24,0 12,12 0 1 1 24,0 z"
         sodipodi:ry="12"
         sodipodi:rx="12"
         sodipodi:cy="76.362183"
         sodipodi:cx="-720"
         id="path2995-4-8-1-1"
         style="fill:#333333;fill-opacity:1;stroke:#000000;stroke-width:2;stroke-miterlimit:4;stroke-opacity:1;stroke-dasharray:none;stroke-dashoffset:0"
         sodipodi:type="arc"
         transform="translate(96,96)" />
    </g>
  </g>
</svg>
